<?xml version="1.0" encoding="UTF-8" standalone="no"?>
<!-- Created with Inkscape (http://www.inkscape.org/) -->

<svg
   xmlns:dc="http://purl.org/dc/elements/1.1/"
   xmlns:cc="http://creativecommons.org/ns#"
   xmlns:rdf="http://www.w3.org/1999/02/22-rdf-syntax-ns#"
   xmlns:svg="http://www.w3.org/2000/svg"
   xmlns="http://www.w3.org/2000/svg"
   xmlns:sodipodi="http://sodipodi.sourceforge.net/DTD/sodipodi-0.dtd"
   xmlns:inkscape="http://www.inkscape.org/namespaces/inkscape"
   width="82.126915mm"
   height="14.463607mm"
   viewBox="0 0 291.00088 51.249"
   id="svg5178"
   version="1.1"
   inkscape:version="0.91 r13725"
   sodipodi:docname="logo.svg">
  <defs
     id="defs5180" />
  <sodipodi:namedview
     id="base"
     pagecolor="#ffffff"
     bordercolor="#666666"
     borderopacity="1.0"
     inkscape:pageopacity="0.0"
     inkscape:pageshadow="2"
     inkscape:zoom="0.35"
     inkscape:cx="529.07187"
     inkscape:cy="-271.51835"
     inkscape:document-units="px"
     inkscape:current-layer="layer1"
     showgrid="false"
     fit-margin-top="0"
     fit-margin-left="0"
     fit-margin-right="0"
     fit-margin-bottom="0"
     inkscape:window-width="1600"
     inkscape:window-height="848"
     inkscape:window-x="-8"
     inkscape:window-y="-8"
     inkscape:window-maximized="1" />
  <metadata
     id="metadata5183">
    <rdf:RDF>
      <cc:Work
         rdf:about="">
        <dc:format>image/svg+xml</dc:format>
        <dc:type
           rdf:resource="http://purl.org/dc/dcmitype/StillImage" />
        <dc:title></dc:title>
      </cc:Work>
    </rdf:RDF>
  </metadata>
  <g
     inkscape:label="Layer 1"
     inkscape:groupmode="layer"
     id="layer1"
     transform="translate(154.07187,-209.59485)">
    <g
       transform="translate(-221.07099,191.21885)"
       id="g84">
      <path
         style="fill:#ffffff"
         inkscape:connector-curvature="0"
         d="M 73.613,29.764 C 74.94,22.172 79.401,18.376 86.996,18.376 l 20.122,0 c 1.896,0 2.678,0.95 2.336,2.848 -0.308,1.898 -1.406,2.847 -3.305,2.847 l -8.731,0 c -3.797,0 -6.037,1.899 -6.723,5.693 l -0.513,2.848 c -0.342,1.897 0.438,2.847 2.335,2.847 l 9.917,0 c 1.897,0 2.676,0.949 2.334,2.847 -0.305,1.899 -1.406,2.847 -3.303,2.847 l -9.917,0 c -1.898,0 -3.021,0.949 -3.361,2.848 l -4.042,22.775 c -0.305,1.899 -1.402,2.848 -3.303,2.848 l -11.387,0 c -1.898,0 -2.695,-0.949 -2.394,-2.848 l 6.552,-37.012 z"
         id="path86" />
      <path
         style="fill:#ffffff"
         inkscape:connector-curvature="0"
         d="m 273.285,35.459 -25.434,0 c -1.896,0 -3.019,0.949 -3.356,2.847 -0.306,1.899 0.49,2.847 2.392,2.847 l 16.889,0 c 1.898,0 2.679,0.949 2.334,2.848 -0.339,1.898 -1.46,2.846 -3.355,2.846 l -19.935,0 c -7.592,0 -12.05,3.796 -13.377,11.389 -1.331,7.593 1.804,11.388 9.396,11.388 l 14.233,0 11.392,0 2.113,0 9.271,0 c 1.9,0 3.001,-0.949 3.303,-2.848 l 3.533,-19.929 c 1.326,-7.593 -1.807,-11.388 -9.399,-11.388 z m -20.098,17.082 8.54,0 c 1.897,0 2.696,0.95 2.394,2.847 l -1.276,7.093 c -0.146,0.801 -0.661,1.449 -1.733,1.449 l -7.067,0 c -5.695,0 -8.202,-1.897 -7.519,-5.693 0.641,-3.797 2.862,-5.696 6.661,-5.696 z"
         id="path88" />
      <path
         style="fill:#ffffff"
         inkscape:connector-curvature="0"
         d="m 137.733,35.459 -19.347,0 c -1.897,0 -3.018,0.949 -3.358,2.847 -0.304,1.899 0.492,2.847 2.395,2.847 l 10.802,0 c 1.897,0 2.676,0.949 2.334,2.848 -0.338,1.898 -1.46,2.846 -3.355,2.846 l -19.934,0 c -7.593,0 -12.052,3.796 -13.38,11.389 -1.329,7.593 1.802,11.388 9.396,11.388 l 14.234,0 11.39,0 2.112,0 9.274,0 c 1.898,0 3.001,-0.949 3.303,-2.848 l 3.533,-19.929 c 1.326,-7.593 -1.807,-11.388 -9.399,-11.388 z m -20.099,17.082 8.54,0 c 1.896,0 2.696,0.95 2.392,2.847 l -1.274,7.093 c -0.147,0.801 -0.661,1.449 -1.734,1.449 l -7.069,0 c -5.692,0 -8.199,-1.897 -7.517,-5.693 0.643,-3.797 2.864,-5.696 6.662,-5.696 z"
         id="path90" />
      <path
         style="fill:#ffffff"
         inkscape:connector-curvature="0"
         d="m 151.683,69.625 c -1.896,0 -2.691,-0.949 -2.391,-2.848 l 3.533,-19.929 c 1.326,-7.593 5.787,-11.388 13.381,-11.388 l 28.47,0 c 7.592,0 10.725,3.795 9.394,11.388 l -3.528,19.929 c -0.304,1.899 -1.402,2.848 -3.305,2.848 l -11.387,0 c -1.898,0 -2.696,-0.949 -2.392,-2.848 l 3.528,-19.929 c 0.687,-3.794 -0.874,-5.694 -4.671,-5.694 l -5.69,0 c -3.797,0 -6.037,1.9 -6.723,5.694 l -3.528,19.929 c -0.306,1.899 -1.402,2.848 -3.304,2.848 l -11.387,0 z"
         id="path92" />
      <g
         id="g94">
        <path
           style="fill:#ffffff"
           inkscape:connector-curvature="0"
           d="m 208.626,69.625 c -1.896,0 -2.693,-0.949 -2.393,-2.848 l 5.015,-28.471 c 0.339,-1.897 1.459,-2.847 3.356,-2.847 l 11.391,0 c 1.898,0 2.676,0.949 2.334,2.847 l -5.012,28.471 c -0.305,1.899 -1.402,2.848 -3.303,2.848 l -11.388,0 z"
           id="path96" />
        <path
           style="fill:#00b4d2"
           inkscape:connector-curvature="0"
           d="m 231.348,21.215 c -0.342,1.899 -1.489,2.848 -3.386,2.848 l -11.392,0 c -1.897,0 -2.646,-0.941 -2.305,-2.839 0.34,-1.898 1.461,-2.848 3.358,-2.848 l 11.389,0 c 1.898,0 2.676,0.95 2.334,2.848"
           id="path98" />
      </g>
      <g
         id="g100">
        <path
           style="fill:#ffffff"
           inkscape:connector-curvature="0"
           d="m 287.235,69.625 c -1.896,0 -2.69,-0.949 -2.391,-2.848 l 5.014,-28.471 c 0.339,-1.897 1.459,-2.847 3.356,-2.847 l 11.39,0 c 1.901,0 2.677,0.949 2.334,2.847 l -5.011,28.471 c -0.304,1.899 -1.403,2.848 -3.302,2.848 l -11.39,0 z"
           id="path102" />
        <path
           style="fill:#ffffff"
           inkscape:connector-curvature="0"
           d="m 343.547,35.453 -2.843,0 -7.231,0 -2.839,0 c -1.438,0 -2.78,0.477 -4.032,1.426 l -18.749,14.239 c -0.733,0.568 -0.961,1.832 -0.43,2.416 l 13.631,14.628 c 0.914,0.975 2.086,1.463 3.521,1.463 l 2.84,0 7.232,0 2.84,0 c 1.438,0 1.697,-0.488 0.783,-1.463 L 324.64,53.534 c -1.008,-1.004 -0.977,-1.326 0.428,-2.416 l 18.747,-14.239 c 1.254,-0.949 1.165,-1.426 -0.268,-1.426 z"
           id="path104" />
      </g>
      <g
         id="g106">
        <path
           style="fill:#ffffff"
           inkscape:connector-curvature="0"
           d="m 346.546,41.17 c 0,-0.775 0.144,-1.507 0.429,-2.198 0.286,-0.691 0.703,-1.309 1.251,-1.858 0.535,-0.536 1.151,-0.947 1.849,-1.233 0.698,-0.286 1.425,-0.429 2.188,-0.429 0.775,0 1.512,0.143 2.208,0.429 0.694,0.286 1.312,0.697 1.848,1.233 0.548,0.549 0.965,1.167 1.251,1.858 0.286,0.691 0.43,1.423 0.43,2.198 0,0.774 -0.144,1.508 -0.43,2.197 -0.287,0.691 -0.704,1.311 -1.251,1.858 -0.535,0.537 -1.152,0.951 -1.848,1.243 -0.697,0.292 -1.434,0.438 -2.208,0.438 -0.761,0 -1.489,-0.146 -2.188,-0.438 -0.696,-0.292 -1.312,-0.706 -1.849,-1.243 -0.549,-0.547 -0.966,-1.167 -1.251,-1.858 -0.285,-0.689 -0.429,-1.423 -0.429,-2.197 z m 5.716,-4.628 c -0.618,0 -1.207,0.116 -1.769,0.348 -0.56,0.234 -1.06,0.569 -1.501,1.011 -0.438,0.44 -0.774,0.939 -1.01,1.5 -0.229,0.561 -0.348,1.149 -0.348,1.769 0,0.619 0.117,1.212 0.348,1.778 0.234,0.565 0.569,1.069 1.01,1.51 0.441,0.44 0.941,0.777 1.501,1.009 0.562,0.233 1.149,0.349 1.769,0.349 0.632,0 1.227,-0.116 1.789,-0.349 0.56,-0.232 1.06,-0.568 1.501,-1.009 0.438,-0.44 0.776,-0.944 1.009,-1.51 0.232,-0.565 0.349,-1.159 0.349,-1.778 0,-0.62 -0.115,-1.208 -0.349,-1.769 -0.231,-0.561 -0.569,-1.06 -1.009,-1.5 -0.441,-0.441 -0.941,-0.777 -1.501,-1.011 -0.562,-0.231 -1.156,-0.348 -1.789,-0.348 z m -1.249,7.862 c -0.145,0 -0.269,-0.054 -0.375,-0.162 -0.107,-0.107 -0.161,-0.238 -0.161,-0.393 l 0,-5.289 c 0,-0.155 0.054,-0.282 0.161,-0.384 0.105,-0.101 0.23,-0.151 0.375,-0.151 l 1.43,0 c 0.275,0 0.53,0.051 0.771,0.151 0.235,0.102 0.444,0.242 0.625,0.42 0.178,0.18 0.32,0.388 0.429,0.626 0.105,0.238 0.161,0.494 0.161,0.768 0,0.394 -0.103,0.745 -0.306,1.054 -0.201,0.311 -0.47,0.547 -0.804,0.715 l 1.036,1.822 c 0.072,0.131 0.089,0.268 0.053,0.411 -0.034,0.142 -0.118,0.256 -0.249,0.34 -0.131,0.071 -0.271,0.085 -0.419,0.044 -0.147,-0.042 -0.26,-0.128 -0.332,-0.26 l -1.231,-2.144 -0.607,0 0,1.876 c 0,0.155 -0.055,0.285 -0.161,0.393 -0.109,0.109 -0.241,0.163 -0.396,0.163 z m 2.324,-4.413 c 0,-0.239 -0.087,-0.443 -0.262,-0.617 -0.173,-0.171 -0.383,-0.258 -0.635,-0.258 l -0.875,0 0,1.768 0.875,0 c 0.251,0 0.462,-0.087 0.635,-0.268 0.175,-0.178 0.262,-0.386 0.262,-0.625 z"
           id="path108" />
      </g>
    </g>
  </g>
</svg>
